<svg width="31" height="26" viewBox="0 0 31 26" fill="none" xmlns="http://www.w3.org/2000/svg">
<path fill-rule="evenodd" clip-rule="evenodd" d="M3.00099 8H26.3732C27.2716 8 28 8.73155 28 9.63392V22.5965C28 23.4989 27.2716 24.2304 26.3732 24.2304L5.87986 24.2128C5.44256 24.2128 0.310747 26.2552 0.0184535 25.9733C-0.134913 25.8254 0.707066 24.8914 1.08716 23.9046C1.47132 22.9072 1.39439 21.8565 1.39439 21.6237L1.37411 9.63392C1.37411 8.73155 2.10248 8 3.00099 8Z" fill="white"/>
<path d="M18.2734 13L21.9375 3.06055H23.127L26.791 13H25.2871L22.5322 4.98145L19.7773 13H18.2734ZM19.9619 10.8193V9.49316H25.1914V10.8193H19.9619ZM29.6895 3.06055V13H28.2949V3.06055H29.6895Z" fill="#FFB75E"/>
</svg>
