<?xml version="1.0" encoding="utf-8" ?>
<svg xmlns="http://www.w3.org/2000/svg" xmlns:xlink="http://www.w3.org/1999/xlink" width="1024" height="1024">
	<defs>
		<linearGradient id="gradient_0" gradientUnits="userSpaceOnUse" x1="319.93896" y1="539.41846" x2="320.07007" y2="99.333687">
			<stop offset="0" stop-color="#D8B586"/>
			<stop offset="1" stop-color="#FFD699"/>
		</linearGradient>
	</defs>
	<path fill="url(#gradient_0)" transform="scale(1.6 1.6)" d="M252.666 98.9616L446.857 98.9689C455.207 98.972 464.281 98.2567 472.509 99.7957C499.684 104.878 516.822 127.486 516.871 154.488L516.851 484.612C516.787 510.475 503.135 532.077 476.915 538.719C471.055 540.203 465.192 539.995 459.203 539.998L389.219 539.991L174.512 540.019C148.944 539.877 126.503 518.763 123.766 493.41C123.034 486.628 123.405 479.567 123.403 472.746L123.4 167.477C123.41 149.945 122.999 134.251 134.531 119.536L139.125 114.47C152.526 101.046 166.338 99.0035 184.317 98.9854L252.666 98.9616ZM316.571 166.626C304.392 169.486 299.847 176.627 292.904 186.019L231.719 268.763C226.818 275.54 221.153 282.005 216.731 289.093L214.471 293.307C208.178 307.028 214.948 322.113 228.371 328.077L232.777 329.53C234.251 329.951 236.129 329.784 237.671 329.792L281.537 329.779L281.535 421.827C281.543 434.277 281.184 445.804 294.762 452.516L297.241 453.599C301.077 455.167 305.825 454.726 309.893 454.73L324.077 454.726C347.116 454.745 358.753 451.003 358.754 425.556L358.742 356.203C358.74 347.475 358.281 338.457 358.792 329.761L396.939 329.78C401.958 329.767 406.925 329.749 411.692 327.944C424.192 323.21 431.803 308.601 427.032 295.743C422.937 284.709 412.865 274.178 405.781 264.967L356.166 197.798C345.259 183.084 337.346 164.896 316.571 166.626Z"/>
</svg>
